<svg xmlns="http://www.w3.org/2000/svg" xmlns:xlink="http://www.w3.org/1999/xlink" width="32" height="32" viewBox="0 0 32 32">
  <defs>
    <clipPath id="clip-path">
      <rect id="Rectangle_3" data-name="Rectangle 3" width="32" height="32" transform="translate(4904 -2909.952)" fill="#fff"/>
    </clipPath>
  </defs>
  <g id="Mask_Group_1" data-name="Mask Group 1" transform="translate(-4904 2909.952)" clip-path="url(#clip-path)">
    <g id="Group_3" data-name="Group 3" transform="translate(4905.992 -2901.441)">
      <path id="Path_28" data-name="Path 28" d="M47.419,38.951a10.562,10.562,0,0,1-2.428-1.945L39.21,31.235,41.6,28.843q2.092-2.148,2.347-2.381a9.974,9.974,0,0,1,1.48-1.179,4.761,4.761,0,0,1,1.017-.494,3.417,3.417,0,0,1,.925-.139v-.43H41.615v.43h.359a1.29,1.29,0,0,1,.821.2.6.6,0,0,1,.243.47,1.525,1.525,0,0,1-.312.813,34.835,34.835,0,0,1-4.151,4.215q-1.245,1.154-1.539,1.432V26.962a5.374,5.374,0,0,1,.15-1.591.831.831,0,0,1,.175-.26l0,0,.04-.038a1.091,1.091,0,0,1,.222-.152,2.237,2.237,0,0,1,1.052-.267h.532V24.6h.068v-.429H32.6v.046h-.068v.43h.555a2.184,2.184,0,0,1,1.064.279,1.059,1.059,0,0,1,.474.488,5.367,5.367,0,0,1,.15,1.591v4.73q-.3-.279-1.539-1.432a34.9,34.9,0,0,1-4.151-4.215,1.525,1.525,0,0,1-.312-.813.6.6,0,0,1,.243-.47,1.291,1.291,0,0,1,.821-.2h.358v-.429H24.432V24.6a3.415,3.415,0,0,1,.925.14,4.731,4.731,0,0,1,1.018.494,9.97,9.97,0,0,1,1.48,1.179q.254.232,2.347,2.38L32.6,31.189,26.814,36.96A10.556,10.556,0,0,1,24.386,38.9a5.16,5.16,0,0,1-2.012.586v.43h7.458v-.43a1.606,1.606,0,0,1-.966-.226.64.64,0,0,1-.295-.5,1.107,1.107,0,0,1,.11-.5,4.43,4.43,0,0,1,.723-.824L34.77,32.1V37.18a3.549,3.549,0,0,1-.278,1.788c-.014.019-.031.035-.047.053a1.4,1.4,0,0,1-.267.192,2.121,2.121,0,0,1-1.052.279H32.6v.046h-.068v.43H39.21v-.046h.068v-.43h-.555a1.67,1.67,0,0,1-1.41-.569,3.548,3.548,0,0,1-.278-1.788V32.151L42.4,37.482a4.43,4.43,0,0,1,.723.824,1.1,1.1,0,0,1,.11.5.639.639,0,0,1-.295.505,1.605,1.605,0,0,1-.965.226v.43h7.458v-.43a5.169,5.169,0,0,1-2.012-.586" transform="translate(-22.374 -24.064)" fill="#1a1818"/>
      <path id="Path_29" data-name="Path 29" d="M68.456,39.252v.435H62.077v-.435H62.6a1.542,1.542,0,0,0,1.34-.576,3.8,3.8,0,0,0,.264-1.81V26.57a5.639,5.639,0,0,0-.143-1.6,1.035,1.035,0,0,0-.45-.505,1.977,1.977,0,0,0-1.01-.282h-.527v-.435h6.379v.435h-.538a1.53,1.53,0,0,0-1.329.576,3.668,3.668,0,0,0-.275,1.81v10.3a5.63,5.63,0,0,0,.143,1.6,1.022,1.022,0,0,0,.461.505,1.916,1.916,0,0,0,1,.282Z" transform="translate(-51.746 -23.749)" fill="#fff"/>
      <path id="Path_30" data-name="Path 30" d="M68.456,39.252v.435H62.077v-.435H62.6a1.542,1.542,0,0,0,1.34-.576,3.8,3.8,0,0,0,.264-1.81V26.57a5.639,5.639,0,0,0-.143-1.6,1.035,1.035,0,0,0-.45-.505,1.977,1.977,0,0,0-1.01-.282h-.527v-.435h6.379v.435h-.538a1.53,1.53,0,0,0-1.329.576,3.668,3.668,0,0,0-.275,1.81v10.3a5.63,5.63,0,0,0,.143,1.6,1.022,1.022,0,0,0,.461.505,1.916,1.916,0,0,0,1,.282Z" transform="translate(-51.746 -23.749)" fill="none" stroke="#1a1818" stroke-miterlimit="10" stroke-width="0.5"/>
    </g>
  </g>
</svg>
