<svg xmlns="http://www.w3.org/2000/svg" xmlns:xlink="http://www.w3.org/1999/xlink" width="400" height="400" viewBox="0 0 400 400">
  <defs>
    <clipPath id="clip-path">
      <rect id="Rectangle_3" data-name="Rectangle 3" width="350" height="350" transform="translate(4906.155 -2909.881)" fill="#fff"/>
    </clipPath>
  </defs>
  <g id="Group_9" data-name="Group 9" transform="translate(-4513 2655)">
    <circle id="Ellipse_1" data-name="Ellipse 1" cx="200" cy="200" r="200" transform="translate(4513 -2655)" fill="#fff"/>
    <g id="Group_5" data-name="Group 5" transform="translate(-172 219)">
      <g id="Mask_Group_1" data-name="Mask Group 1" transform="translate(-196.155 60.881)" clip-path="url(#clip-path)">
        <g id="Group_3" data-name="Group 3" transform="translate(4914.998 -2832.837)">
          <path id="Path_28" data-name="Path 28" d="M329.609,205.435q-12.338-6.337-29.786-23.859l-70.919-70.8,29.361-29.345q25.667-26.353,28.793-29.2,10.777-9.967,18.155-14.458a58.4,58.4,0,0,1,12.48-6.054,41.916,41.916,0,0,1,11.347-1.708V24.737H258.406v5.272h4.4q7.091,0,10.07,2.494a7.366,7.366,0,0,1,2.978,5.77q0,4.272-3.83,9.969-8.8,12.966-50.919,51.709-15.268,14.153-18.88,17.568V58.36q0-14.666,1.845-19.513a10.189,10.189,0,0,1,2.151-3.193l.032-.032c.156-.16.326-.313.495-.469a13.39,13.39,0,0,1,2.726-1.868,27.436,27.436,0,0,1,12.908-3.276H228.9v-.565h.836V24.175H147.758v.562h-.836v5.272h6.808a26.787,26.787,0,0,1,13.048,3.42q4.4,2.562,5.816,5.981,1.843,4.847,1.845,19.516v58.028q-3.624-3.42-18.88-17.565Q113.437,60.64,104.64,47.679q-3.83-5.695-3.83-9.972a7.375,7.375,0,0,1,2.978-5.77q2.983-2.491,10.073-2.494h4.4V24.175H47.621v5.269a41.893,41.893,0,0,1,11.347,1.712,58.035,58.035,0,0,1,12.483,6.054Q78.824,41.7,89.606,51.668q3.117,2.85,28.793,29.2l29.358,29.345-70.919,70.8Q59.393,198.532,47.053,204.87a63.3,63.3,0,0,1-24.679,7.194v5.272h91.487v-5.272q-8.225,0-11.845-2.778T98.4,203.091a13.583,13.583,0,0,1,1.347-6.128q1.35-2.7,8.864-10.113l65.828-65.4v62.266q0,17.382-3.406,21.937c-.176.23-.383.428-.571.645a17.175,17.175,0,0,1-3.272,2.353,26.021,26.021,0,0,1-12.908,3.417h-6.524v.565h-.836V217.9H228.9v-.565h.836v-5.272h-6.808q-11.912,0-17.3-6.98-3.4-4.555-3.406-21.937V122.012l65.828,65.4q7.517,7.4,8.864,10.113a13.538,13.538,0,0,1,1.347,6.124q0,3.42-3.616,6.2T262.8,212.629V217.9h91.484v-5.272a63.412,63.412,0,0,1-24.679-7.194" transform="translate(-22.374 -22.815)"/>
          <path id="Path_29" data-name="Path 29" d="M140.334,213.924v5.336H62.077v-5.336H68.54q11.313,0,16.435-7.066,3.232-4.612,3.233-22.2V58.353q0-14.848-1.752-19.609a12.7,12.7,0,0,0-5.522-6.2A24.25,24.25,0,0,0,68.54,29.085H62.077V23.749h78.257v5.336h-6.6q-11.179,0-16.3,7.063-3.366,4.617-3.367,22.2v126.3q0,14.848,1.752,19.609a12.541,12.541,0,0,0,5.656,6.2,23.5,23.5,0,0,0,12.257,3.461Z" transform="translate(64.751 -23.749)" fill="#fff"/>
          <path id="Path_30" data-name="Path 30" d="M144.3,212.6v5.3H62.077v-5.3h6.791q11.887,0,17.268-7.017,3.4-4.58,3.4-22.047V58.112q0-14.745-1.841-19.472a12.864,12.864,0,0,0-5.8-6.158,26.608,26.608,0,0,0-13.022-3.434H62.077v-5.3H144.3v5.3h-6.936q-11.746,0-17.124,7.014-3.536,4.585-3.538,22.05V183.537q0,14.744,1.841,19.472,1.409,3.577,5.943,6.155a25.778,25.778,0,0,0,12.878,3.437Z" transform="translate(62.335 -22.389)" fill="none" stroke="#000" stroke-miterlimit="10" stroke-width="3.5"/>
        </g>
      </g>
    </g>
  </g>
</svg>
