<svg xmlns="http://www.w3.org/2000/svg" xmlns:xlink="http://www.w3.org/1999/xlink" width="150" height="147.054" viewBox="0 0 150 147.054">
  <defs>
    <clipPath id="clip-path">
      <rect id="Rectangle_2" data-name="Rectangle 2" width="150" height="147.054" fill="none"/>
    </clipPath>
  </defs>
  <g id="Group_2" data-name="Group 2" transform="translate(68 2)">
    <g id="Group_1" data-name="Group 1" transform="translate(-68 -2)" clip-path="url(#clip-path)">
      <path id="Path_1" data-name="Path 1" d="M119.2,81.3q-3.888-2-9.387-7.519L87.461,51.468l9.253-9.248q8.089-8.3,9.074-9.2a38.557,38.557,0,0,1,5.721-4.556,18.4,18.4,0,0,1,3.933-1.908,13.209,13.209,0,0,1,3.576-.538V24.352H96.758v1.661h1.386a4.987,4.987,0,0,1,3.174.786,2.321,2.321,0,0,1,.938,1.818,5.894,5.894,0,0,1-1.207,3.142Q98.277,35.845,85,48.055q-4.812,4.46-5.95,5.537V34.948a20.775,20.775,0,0,1,.581-6.149,3.212,3.212,0,0,1,.678-1.006l.01-.01c.049-.05.1-.1.156-.148a4.219,4.219,0,0,1,.859-.589A8.646,8.646,0,0,1,85.4,26.013h2.056v-.178h.264v-1.66H61.888v.177h-.264v1.661H63.77a8.442,8.442,0,0,1,4.112,1.078,4.1,4.1,0,0,1,1.833,1.885,20.748,20.748,0,0,1,.581,6.15V53.414q-1.142-1.078-5.95-5.536Q51.072,35.667,48.3,31.582a5.9,5.9,0,0,1-1.207-3.143,2.324,2.324,0,0,1,.938-1.818,4.99,4.99,0,0,1,3.175-.786h1.385v-1.66H30.331v1.66a13.2,13.2,0,0,1,3.576.539,18.29,18.29,0,0,1,3.934,1.908,38.543,38.543,0,0,1,5.721,4.556q.982.9,9.074,9.2l9.252,9.248L39.538,73.6q-5.5,5.521-9.387,7.519a19.95,19.95,0,0,1-7.777,2.267v1.661H51.206V83.387a6.207,6.207,0,0,1-3.733-.875,2.474,2.474,0,0,1-1.14-1.952,4.281,4.281,0,0,1,.424-1.931,17.127,17.127,0,0,1,2.793-3.187L70.3,54.83V74.452q0,5.478-1.073,6.913c-.055.072-.121.135-.18.2a5.41,5.41,0,0,1-1.031.742,8.2,8.2,0,0,1-4.068,1.077H61.888v.178h-.264v1.661H87.461v-.178h.264V83.387H85.579q-3.754,0-5.453-2.2-1.073-1.435-1.073-6.913V55.008L99.8,75.619a17.127,17.127,0,0,1,2.793,3.187,4.266,4.266,0,0,1,.424,1.93,2.471,2.471,0,0,1-1.14,1.953,6.206,6.206,0,0,1-3.732.875v1.661h28.831V83.565A19.984,19.984,0,0,1,119.2,81.3" transform="translate(0.132 0.152)" fill="#1a1818"/>
      <path id="Path_2" data-name="Path 2" d="M86.739,83.682v1.682H62.077V83.682h2.037q3.565,0,5.179-2.227,1.018-1.454,1.019-7v-39.8a21.8,21.8,0,0,0-.552-6.18,4,4,0,0,0-1.74-1.954,7.642,7.642,0,0,0-3.906-1.09H62.077V23.749H86.739v1.682h-2.08q-3.523,0-5.136,2.226-1.061,1.455-1.061,7v39.8a21.765,21.765,0,0,0,.552,6.18A3.952,3.952,0,0,0,80.8,82.591a7.407,7.407,0,0,0,3.863,1.091Z" transform="translate(0.365 0.149)" fill="#fff"/>
      <path id="Path_3" data-name="Path 3" d="M86.739,83.682v1.682H62.077V83.682h2.037q3.565,0,5.179-2.227,1.018-1.454,1.019-7v-39.8a21.8,21.8,0,0,0-.552-6.18,4,4,0,0,0-1.74-1.954,7.642,7.642,0,0,0-3.906-1.09H62.077V23.749H86.739v1.682h-2.08q-3.523,0-5.136,2.226-1.061,1.455-1.061,7v39.8a21.765,21.765,0,0,0,.552,6.18A3.952,3.952,0,0,0,80.8,82.591a7.407,7.407,0,0,0,3.863,1.091Z" transform="translate(0.365 0.149)" fill="none" stroke="#1a1818" stroke-miterlimit="10" stroke-width="2"/>
      <path id="Path_4" data-name="Path 4" d="M26.334,106.735a.7.7,0,0,0,.188-.02c.045-.013.066-.065.066-.154a.886.886,0,0,0-.121-.243q-.121-.2-.309-.5t-.415-.631c-.152-.223-.294-.439-.43-.644s-.254-.384-.362-.537-.179-.255-.214-.309l-1.316,1.181v1.611a.209.209,0,0,0,.06.154.6.6,0,0,0,.316.088v.161H21.035v-.161a.6.6,0,0,0,.315-.088.2.2,0,0,0,.06-.154v-6.255a.2.2,0,0,0-.06-.154.6.6,0,0,0-.315-.088v-.161H23.8V100a.6.6,0,0,0-.316.088.209.209,0,0,0-.06.154v2.416h.095q.4-.389.865-.805t.852-.772q.389-.356.651-.6c.174-.165.262-.266.262-.3,0-.081-.022-.127-.067-.141A1.145,1.145,0,0,0,25.9,100v-.161h3.408V100a1.155,1.155,0,0,0-.221.04.561.561,0,0,0-.161.08c-.049.036-.1.078-.161.128s-.128.11-.208.181l-2.321,2,2.737,4.095a.414.414,0,0,0,.2.187.81.81,0,0,0,.226.027v.161H26.334Z" transform="translate(0.124 0.628)" fill="#1a1818"/>
      <path id="Path_5" data-name="Path 5" d="M36.382,105.709c.179,0,.295-.112.349-.336h.161v1.759h-.134c-.045-.126-.093-.2-.142-.215a.734.734,0,0,0-.234-.026H30.4v-.161a1.071,1.071,0,0,0,.262-.054.175.175,0,0,0,.114-.187v-5.1a.176.176,0,0,0-.114-.188,1.073,1.073,0,0,0-.262-.053v-.161H36.49a.288.288,0,0,0,.161-.054c.053-.035.08-.116.08-.242h.161v1.8h-.161a.324.324,0,0,0-.08-.263.27.27,0,0,0-.161-.06H32.572v1.088h2.523a.27.27,0,0,0,.161-.06.3.3,0,0,0,.08-.249H35.5v1.745h-.161a.3.3,0,0,0-.08-.249.27.27,0,0,0-.161-.06H32.572v1.329Z" transform="translate(0.179 0.633)" fill="#1a1818"/>
      <path id="Path_6" data-name="Path 6" d="M44.532,105.709c.179,0,.295-.112.349-.336h.161v1.759h-.134c-.045-.126-.093-.2-.142-.215a.734.734,0,0,0-.234-.026H38.548v-.161a1.071,1.071,0,0,0,.262-.054.175.175,0,0,0,.114-.187v-5.1a.176.176,0,0,0-.114-.188,1.073,1.073,0,0,0-.262-.053v-.161H44.64a.288.288,0,0,0,.161-.054c.053-.035.08-.116.08-.242h.161v1.8h-.161a.324.324,0,0,0-.08-.263.27.27,0,0,0-.161-.06H40.722v1.088h2.523a.27.27,0,0,0,.161-.06.3.3,0,0,0,.08-.249h.161v1.745h-.161a.3.3,0,0,0-.08-.249.27.27,0,0,0-.161-.06H40.722v1.329Z" transform="translate(0.227 0.633)" fill="#1a1818"/>
      <path id="Path_7" data-name="Path 7" d="M47.005,101.386c0-.1-.028-.161-.087-.188a1.309,1.309,0,0,0-.128-.053v-.161H50.32a5.529,5.529,0,0,1,.96.081,2.272,2.272,0,0,1,.812.295,1.641,1.641,0,0,1,.563.584,2.242,2.242,0,0,1,0,1.913,1.622,1.622,0,0,1-.563.591,2.272,2.272,0,0,1-.812.295,5.528,5.528,0,0,1-.96.082H48.8v1.664a.177.177,0,0,0,.1.187.825.825,0,0,0,.208.054v.161H46.791v-.161a1.387,1.387,0,0,0,.128-.054c.058-.026.087-.09.087-.187Zm3.073,2.308a1.37,1.37,0,0,0,.8-.181.715.715,0,0,0,.241-.611.763.763,0,0,0-.214-.6,1.1,1.1,0,0,0-.724-.188H48.8v1.584Z" transform="translate(0.275 0.635)" fill="#1a1818"/>
      <path id="Path_8" data-name="Path 8" d="M58.6,106.735a.611.611,0,0,0,.316-.088.209.209,0,0,0,.06-.154v-6.255a.209.209,0,0,0-.06-.154A.611.611,0,0,0,58.6,100v-.161H61.36V100a.6.6,0,0,0-.316.088.209.209,0,0,0-.06.154v6.255a.209.209,0,0,0,.06.154.6.6,0,0,0,.316.088v.161H58.6Z" transform="translate(0.345 0.628)" fill="#1a1818"/>
      <path id="Path_9" data-name="Path 9" d="M69.1,100.985a.292.292,0,0,0,.161-.053c.053-.036.08-.117.08-.242H69.5v1.959h-.161c0-.125-.027-.206-.08-.242a.284.284,0,0,0-.161-.053H67.183v4.134a.179.179,0,0,0,.1.188.86.86,0,0,0,.207.053v.161H65.076v-.161a.88.88,0,0,0,.208-.053.179.179,0,0,0,.1-.188v-4.134H63.466a.282.282,0,0,0-.161.053c-.054.035-.08.117-.08.242h-.161V100.69h.161c0,.125.026.205.08.242a.29.29,0,0,0,.161.053Z" transform="translate(0.371 0.633)" fill="#1a1818"/>
      <path id="Path_10" data-name="Path 10" d="M80.422,106.735a.7.7,0,0,0,.188-.02c.044-.013.066-.065.066-.154a.886.886,0,0,0-.121-.243q-.121-.2-.308-.5t-.416-.631c-.152-.223-.295-.439-.43-.644s-.254-.384-.362-.537-.179-.255-.214-.309l-1.316,1.181v1.611a.209.209,0,0,0,.061.154.6.6,0,0,0,.315.088v.161H75.122v-.161a.6.6,0,0,0,.316-.088.209.209,0,0,0,.06-.154v-6.255a.209.209,0,0,0-.06-.154.6.6,0,0,0-.316-.088v-.161h2.764V100a.6.6,0,0,0-.315.088.209.209,0,0,0-.061.154v2.416H77.6q.4-.389.865-.805t.852-.772q.389-.356.651-.6c.174-.165.262-.266.262-.3,0-.081-.022-.127-.066-.141a1.187,1.187,0,0,0-.175-.033v-.161H83.4V100a1.155,1.155,0,0,0-.221.04.562.562,0,0,0-.161.08c-.049.036-.1.078-.161.128s-.128.11-.208.181l-2.321,2,2.737,4.095a.421.421,0,0,0,.2.187.83.83,0,0,0,.228.027v.161H80.422Z" transform="translate(0.442 0.628)" fill="#1a1818"/>
      <path id="Path_11" data-name="Path 11" d="M89.759,106.728a.584.584,0,0,0,.108-.014c.044-.009.067-.044.067-.107a.507.507,0,0,0-.047-.168c-.031-.076-.067-.159-.108-.249s-.082-.179-.127-.269-.08-.165-.108-.227H86.432a1.773,1.773,0,0,1-.087.227c-.04.09-.083.179-.128.269s-.086.172-.121.249a.449.449,0,0,0-.054.168c0,.062.023.1.067.107a.584.584,0,0,0,.108.014v.161H84.205v-.161a.4.4,0,0,0,.161-.034.184.184,0,0,0,.108-.1q.4-.939.819-1.859t.744-1.664q.329-.746.543-1.235a3.121,3.121,0,0,0,.214-.557c0-.081-.058-.125-.174-.134v-.161h2.8v.161c-.117.009-.175.053-.175.134a2.092,2.092,0,0,0,.141.356q.142.315.369.792t.5,1.054q.276.577.55,1.154t.517,1.094q.241.516.389.865a.179.179,0,0,0,.107.1.406.406,0,0,0,.161.034v.161H89.759Zm-1.8-4.349-1.1,2.349h2.227Z" transform="translate(0.495 0.635)" fill="#1a1818"/>
      <path id="Path_12" data-name="Path 12" d="M99.113,100.985a.292.292,0,0,0,.161-.053c.053-.036.08-.117.08-.242h.161v1.959h-.161c0-.125-.027-.206-.08-.242a.284.284,0,0,0-.161-.053H97.2v4.134a.18.18,0,0,0,.1.188.88.88,0,0,0,.208.053v.161H95.089v-.161a.872.872,0,0,0,.207-.053.179.179,0,0,0,.1-.188v-4.134H93.478a.284.284,0,0,0-.161.053c-.054.035-.08.117-.08.242h-.161V100.69h.161c0,.125.026.205.08.242a.292.292,0,0,0,.161.053Z" transform="translate(0.547 0.633)" fill="#1a1818"/>
      <path id="Path_13" data-name="Path 13" d="M106.782,105.709c.179,0,.295-.112.349-.336h.161v1.759h-.135c-.044-.126-.092-.2-.14-.215a.746.746,0,0,0-.235-.026H100.8v-.161a1.071,1.071,0,0,0,.262-.054.176.176,0,0,0,.115-.187v-5.1a.178.178,0,0,0-.115-.188,1.072,1.072,0,0,0-.262-.053v-.161h6.092a.288.288,0,0,0,.161-.054c.053-.035.08-.116.08-.242h.161v1.8h-.161a.324.324,0,0,0-.08-.263.27.27,0,0,0-.161-.06h-3.918v1.088h2.522a.265.265,0,0,0,.161-.06.3.3,0,0,0,.08-.249h.162v1.745h-.162a.3.3,0,0,0-.08-.249.265.265,0,0,0-.161-.06h-2.522v1.329Z" transform="translate(0.593 0.633)" fill="#1a1818"/>
      <path id="Path_14" data-name="Path 14" d="M109.284,101.386a.178.178,0,0,0-.108-.188,1.01,1.01,0,0,0-.255-.053v-.161h2.509v.161a.924.924,0,0,0-.248.053.18.18,0,0,0-.1.188v4.134h3.676a.267.267,0,0,0,.161-.06c.053-.04.08-.132.08-.275h.161v2H115c0-.143-.027-.227-.08-.255a.353.353,0,0,0-.161-.04h-5.836v-.161a1.01,1.01,0,0,0,.255-.053.178.178,0,0,0,.108-.188Z" transform="translate(0.641 0.635)" fill="#1a1818"/>
      <path id="Path_15" data-name="Path 15" d="M119.115,101.144a1.279,1.279,0,0,0-.316.053.177.177,0,0,0-.114.188v5.1a.177.177,0,0,0,.114.188,1.279,1.279,0,0,0,.316.053v.161h-2.657v-.161a1.262,1.262,0,0,0,.315-.053.177.177,0,0,0,.115-.188v-5.1a.177.177,0,0,0-.115-.188,1.262,1.262,0,0,0-.315-.053v-.161h2.657Z" transform="translate(0.685 0.635)" fill="#1a1818"/>
      <path id="Path_16" data-name="Path 16" d="M127.756,106.485a.177.177,0,0,0,.108.188,1.046,1.046,0,0,0,.268.053v.161h-2.481v-.161a1.321,1.321,0,0,0,.247-.027c.095-.017.142-.066.142-.147s-.1-.23-.3-.45-.45-.49-.758-.812-.655-.682-1.039-1.081-.765-.821-1.141-1.269l-.027.027v3.517a.18.18,0,0,0,.1.188.924.924,0,0,0,.248.053v.161h-2.294v-.161a.9.9,0,0,0,.235-.053.18.18,0,0,0,.1-.188v-5.1a.178.178,0,0,0-.108-.188,1.018,1.018,0,0,0-.255-.053v-.161H124v.161a.79.79,0,0,0-.188.053c-.062.027-.094.09-.094.188a1.484,1.484,0,0,0,.221.276q.222.248.57.624t.779.832l.858.913v-2.645a.177.177,0,0,0-.107-.188,1.054,1.054,0,0,0-.269-.053v-.161h2.361v.161a1.046,1.046,0,0,0-.268.053.177.177,0,0,0-.108.188Z" transform="translate(0.71 0.635)" fill="#1a1818"/>
      <path id="Path_17" data-name="Path 17" d="M32.306,122.5a.207.207,0,0,0,.06.154.594.594,0,0,0,.316.088v.161H29.918v-.161a.594.594,0,0,0,.316-.088.207.207,0,0,0,.06-.154v-6.255a.209.209,0,0,0-.06-.154.6.6,0,0,0-.316-.088v-.161h4.8a3.159,3.159,0,0,1,1.114.181,2.334,2.334,0,0,1,.806.49,2.013,2.013,0,0,1,.483.718,2.337,2.337,0,0,1,0,1.7,1.944,1.944,0,0,1-.483.711,2.384,2.384,0,0,1-.806.483,3.159,3.159,0,0,1-1.114.181H32.306Zm2.04-3.611a1.426,1.426,0,0,0,.825-.188.705.705,0,0,0,.262-.617.625.625,0,0,0-.262-.564,1.514,1.514,0,0,0-.825-.175h-2.04v1.544Z" transform="translate(0.176 0.728)" fill="#1a1818"/>
      <path id="Path_18" data-name="Path 18" d="M40.722,122.492a.177.177,0,0,0,.108.188,1.045,1.045,0,0,0,.268.053v.161H38.548v-.161a1.045,1.045,0,0,0,.269-.053.177.177,0,0,0,.107-.188v-5.1a.177.177,0,0,0-.107-.188,1.045,1.045,0,0,0-.269-.053v-.161H41.1v.161a1.045,1.045,0,0,0-.268.053.177.177,0,0,0-.108.188v1.692h2.965v-1.692a.178.178,0,0,0-.108-.188,1.045,1.045,0,0,0-.269-.053v-.161h2.55v.161a1.045,1.045,0,0,0-.269.053.178.178,0,0,0-.108.188v5.1a.178.178,0,0,0,.108.188,1.045,1.045,0,0,0,.269.053v.161h-2.55v-.161a1.045,1.045,0,0,0,.269-.053.178.178,0,0,0,.108-.188v-2.04H40.722Z" transform="translate(0.227 0.736)" fill="#1a1818"/>
      <path id="Path_19" data-name="Path 19" d="M50.72,116.909a4.8,4.8,0,0,1,1.267.174,3.609,3.609,0,0,1,1.155.544,2.848,2.848,0,0,1,.838.946,3.087,3.087,0,0,1,0,2.745,2.8,2.8,0,0,1-.838.933,3.483,3.483,0,0,1-1.155.523,5.073,5.073,0,0,1-2.536,0,3.487,3.487,0,0,1-1.154-.523,2.8,2.8,0,0,1-.838-.933,3.087,3.087,0,0,1,0-2.745,2.848,2.848,0,0,1,.838-.946,3.613,3.613,0,0,1,1.154-.544,4.815,4.815,0,0,1,1.268-.174m0,1.423a2.181,2.181,0,0,0-.711.115,1.894,1.894,0,0,0-.59.323,1.448,1.448,0,0,0-.4.506,1.682,1.682,0,0,0,0,1.347,1.435,1.435,0,0,0,.4.505,1.876,1.876,0,0,0,.59.324,2.3,2.3,0,0,0,1.429,0,1.9,1.9,0,0,0,.583-.324,1.435,1.435,0,0,0,.4-.505,1.682,1.682,0,0,0,0-1.347,1.448,1.448,0,0,0-.4-.506,1.916,1.916,0,0,0-.583-.323,2.167,2.167,0,0,0-.718-.115" transform="translate(0.277 0.735)" fill="#1a1818"/>
      <path id="Path_20" data-name="Path 20" d="M61.325,116.991a.292.292,0,0,0,.161-.053c.053-.036.08-.117.08-.242h.161v1.959h-.161c0-.125-.027-.206-.08-.242a.284.284,0,0,0-.161-.053H59.407v4.134a.179.179,0,0,0,.1.188.859.859,0,0,0,.207.053v.161H57.3v-.161a.879.879,0,0,0,.208-.053.179.179,0,0,0,.1-.188V118.36H55.69a.282.282,0,0,0-.161.053c-.054.035-.08.117-.08.242h-.161V116.7h.161c0,.125.026.205.08.242a.29.29,0,0,0,.161.053Z" transform="translate(0.325 0.734)" fill="#1a1818"/>
      <path id="Path_21" data-name="Path 21" d="M66.286,116.909a4.8,4.8,0,0,1,1.267.174,3.609,3.609,0,0,1,1.155.544,2.848,2.848,0,0,1,.838.946,3.087,3.087,0,0,1,0,2.745,2.8,2.8,0,0,1-.838.933,3.483,3.483,0,0,1-1.155.523,5.073,5.073,0,0,1-2.536,0,3.487,3.487,0,0,1-1.154-.523,2.8,2.8,0,0,1-.838-.933,3.087,3.087,0,0,1,0-2.745,2.848,2.848,0,0,1,.838-.946,3.613,3.613,0,0,1,1.154-.544,4.815,4.815,0,0,1,1.268-.174m0,1.423a2.181,2.181,0,0,0-.711.115,1.894,1.894,0,0,0-.59.323,1.448,1.448,0,0,0-.4.506,1.682,1.682,0,0,0,0,1.347,1.435,1.435,0,0,0,.4.505,1.876,1.876,0,0,0,.59.324,2.3,2.3,0,0,0,1.429,0,1.9,1.9,0,0,0,.583-.324,1.435,1.435,0,0,0,.4-.505,1.682,1.682,0,0,0,0-1.347,1.448,1.448,0,0,0-.4-.506,1.916,1.916,0,0,0-.583-.323,2.167,2.167,0,0,0-.718-.115" transform="translate(0.369 0.735)" fill="#1a1818"/>
      <path id="Path_22" data-name="Path 22" d="M77.67,121.513a.441.441,0,0,0,.067.242.208.208,0,0,0,.187.108h.122v.161c-.215.108-.461.217-.738.329a8.631,8.631,0,0,1-.9.3,7.785,7.785,0,0,1-.993.207,7.105,7.105,0,0,1-1.019.074,6.013,6.013,0,0,1-1.436-.161,2.856,2.856,0,0,1-1.12-.53,2.511,2.511,0,0,1-.725-.94,3.238,3.238,0,0,1-.262-1.363,2.924,2.924,0,0,1,.295-1.362,2.676,2.676,0,0,1,.793-.94,3.446,3.446,0,0,1,1.134-.55,4.807,4.807,0,0,1,1.322-.181,6.589,6.589,0,0,1,.93.06,7.561,7.561,0,0,1,.746.141q.321.08.53.141a1.285,1.285,0,0,0,.274.06.179.179,0,0,0,.141-.04c.023-.027.052-.058.089-.094l.16.026-.7,1.772-.16-.08V118.8c0-.081-.061-.157-.181-.228a2.236,2.236,0,0,0-.45-.194,3.635,3.635,0,0,0-.57-.135,3.6,3.6,0,0,0-.543-.047,3.283,3.283,0,0,0-.793.095,1.708,1.708,0,0,0-.65.309,1.538,1.538,0,0,0-.437.543,1.812,1.812,0,0,0-.16.8,1.943,1.943,0,0,0,.16.826,1.557,1.557,0,0,0,.444.564,1.885,1.885,0,0,0,.657.329,2.979,2.979,0,0,0,.819.107,4.582,4.582,0,0,0,.658-.046,3.651,3.651,0,0,0,.644-.155v-.872H74.879a.185.185,0,0,0-.2.122.649.649,0,0,0-.04.2h-.162v-1.664h.162a.654.654,0,0,0,.04.2.185.185,0,0,0,.2.121H77.67Z" transform="translate(0.417 0.735)" fill="#1a1818"/>
      <path id="Path_23" data-name="Path 23" d="M79.739,117.392c0-.1-.031-.161-.094-.188a.769.769,0,0,0-.2-.053v-.161H83.75a2.528,2.528,0,0,1,1.6.47,1.668,1.668,0,0,1,.6,1.4A1.554,1.554,0,0,1,85.529,120a2.95,2.95,0,0,1-1.066.664l1.193,1.8a.594.594,0,0,0,.2.188.509.509,0,0,0,.276.081v.161H83.415v-.161a.723.723,0,0,0,.208-.034.137.137,0,0,0,.114-.14,1.12,1.12,0,0,0-.141-.336q-.14-.269-.322-.578c-.121-.205-.237-.4-.349-.59s-.181-.309-.207-.362H81.43v1.8a.179.179,0,0,0,.1.188.923.923,0,0,0,.248.053v.161H79.471v-.161a.805.805,0,0,0,.174-.053c.062-.027.094-.09.094-.188Zm3.6,2.175a1.132,1.132,0,0,0,.678-.181.63.63,0,0,0,.247-.543.7.7,0,0,0-.207-.517,1.165,1.165,0,0,0-.812-.208H81.43v1.45Z" transform="translate(0.467 0.736)" fill="#1a1818"/>
      <path id="Path_24" data-name="Path 24" d="M92.734,122.734a.583.583,0,0,0,.108-.014c.044-.008.067-.044.067-.107a.507.507,0,0,0-.047-.168c-.031-.076-.067-.159-.108-.249s-.082-.179-.127-.269-.08-.165-.108-.228H89.407a1.725,1.725,0,0,1-.087.228c-.04.09-.083.179-.128.269s-.086.172-.121.249a.449.449,0,0,0-.054.168c0,.062.023.1.067.107a.583.583,0,0,0,.108.014v.161H87.18v-.161a.4.4,0,0,0,.161-.034.184.184,0,0,0,.108-.1q.4-.939.819-1.859t.744-1.664q.329-.746.543-1.235a3.12,3.12,0,0,0,.214-.557c0-.08-.058-.125-.174-.134v-.161h2.8v.161c-.117.009-.175.053-.175.134a2.092,2.092,0,0,0,.141.356q.142.315.369.792t.5,1.054q.276.577.55,1.154t.517,1.094q.241.516.389.865a.179.179,0,0,0,.107.1.406.406,0,0,0,.161.034v.161H92.734Zm-1.8-4.349-1.1,2.349h2.227Z" transform="translate(0.513 0.736)" fill="#1a1818"/>
      <path id="Path_25" data-name="Path 25" d="M96.664,117.392c0-.1-.029-.161-.087-.188a1.31,1.31,0,0,0-.128-.053v-.161h3.529a5.53,5.53,0,0,1,.96.081,2.287,2.287,0,0,1,.812.295,1.65,1.65,0,0,1,.563.584,2.242,2.242,0,0,1,0,1.913,1.631,1.631,0,0,1-.563.591,2.307,2.307,0,0,1-.812.3,5.629,5.629,0,0,1-.96.081H98.463v1.664c0,.1.033.161.1.187a.817.817,0,0,0,.207.054v.161H96.45v-.161a1.386,1.386,0,0,0,.128-.054c.057-.026.087-.089.087-.187Zm3.073,2.308a1.37,1.37,0,0,0,.8-.181.715.715,0,0,0,.241-.611.763.763,0,0,0-.214-.6,1.1,1.1,0,0,0-.724-.188H98.463V119.7Z" transform="translate(0.567 0.736)" fill="#1a1818"/>
      <path id="Path_26" data-name="Path 26" d="M105.947,122.492a.177.177,0,0,0,.108.188,1.045,1.045,0,0,0,.268.053v.161h-2.549v-.161a1.045,1.045,0,0,0,.269-.053.178.178,0,0,0,.108-.188v-5.1a.178.178,0,0,0-.108-.188,1.045,1.045,0,0,0-.269-.053v-.161h2.549v.161a1.045,1.045,0,0,0-.268.053.177.177,0,0,0-.108.188v1.692h2.965v-1.692a.178.178,0,0,0-.108-.188,1.045,1.045,0,0,0-.269-.053v-.161h2.55v.161a1.045,1.045,0,0,0-.269.053.178.178,0,0,0-.108.188v5.1a.178.178,0,0,0,.108.188,1.045,1.045,0,0,0,.269.053v.161h-2.55v-.161a1.045,1.045,0,0,0,.269-.053.178.178,0,0,0,.108-.188v-2.04h-2.965Z" transform="translate(0.61 0.736)" fill="#1a1818"/>
      <path id="Path_27" data-name="Path 27" d="M116.913,122.492c0,.1.031.161.094.188a.777.777,0,0,0,.188.053v.161h-2.361v-.161a.769.769,0,0,0,.187-.053.183.183,0,0,0,.095-.188v-1.732l-2.563-3.476a.274.274,0,0,0-.181-.108,1.052,1.052,0,0,0-.208-.027v-.161h2.885v.161a1.2,1.2,0,0,0-.2.02.12.12,0,0,0-.114.128.585.585,0,0,0,.128.249c.084.121.19.266.315.436s.264.351.416.543.295.378.43.557a3.492,3.492,0,0,1,.241-.376l.4-.564q.208-.294.369-.536a.869.869,0,0,0,.161-.309.118.118,0,0,0-.108-.128,1.022,1.022,0,0,0-.174-.02v-.161h2.657v.161a.925.925,0,0,0-.188.027.265.265,0,0,0-.174.108l-2.294,3.422Z" transform="translate(0.66 0.736)" fill="#1a1818"/>
    </g>
  </g>
</svg>
